# AST/ASF file generated using VICON BodyLanguage
# -----------------------------------------------
:version 1.10
:name VICON
:units
  mass 1.0
  length 0.45
  angle deg
:documentation
   .ast/.asf automatically generated from VICON data using
   VICON BodyBuilder and BodyLanguage model FoxedUp or BRILLIANT.MOD
:root
   order TX TY TZ RX RY RZ
   axis XYZ
   position 0 0 0  
   orientation 0 0 0 
:bonedata
  begin
     id 1 
     name lhipjoint
     direction 0.646657 -0.683706 0.338203 
     length 2.4948 
     axis 0 0 0  XYZ
  end
  begin
     id 2 
     name lfemur
     direction 0.34202 -0.939693 0  
     length 6.79491  
     axis 0 0 20  XYZ
    dof rx ry rz
    limits (-160.0 20.0)
           (-70.0 70.0)
           (-60.0 70.0)
  end
  begin
     id 3 
     name ltibia
     direction 0.34202 -0.939693 0   
     length 7.56807   
     axis 0 0 20   XYZ
    dof rx
    limits (-10.0 170.0)
  end
  begin
     id 4 
     name lfoot
     direction 0.0679796 -0.186772 0.980048   
     length 2.53018   
     axis -90 7.62852e-016 20   XYZ
    dof rx rz
    limits (-45.0 90.0)
           (-70.0 20.0)
  end
  begin
     id 5 
     name ltoes
     direction 1.53625e-011 -4.21881e-011 1   
     length 1.26912   
     axis -90 7.62852e-016 20   XYZ
    dof rx
    limits (-90.0 20.0)
  end
  begin
     id 6 
     name rhipjoint
     direction -0.618868 -0.704065 0.348274   
     length 2.42265  
     axis 0 0 0  XYZ 
  end
  begin
     id 7 
     name rfemur
     direction -0.34202 -0.939693 0   
     length 6.73814   
     axis 0 0 -20   XYZ
    dof rx ry rz
    limits (-160.0 20.0)
           (-70.0 70.0)
           (-70.0 60.0)
  end
  begin
     id 8 
     name rtibia
     direction -0.34202 -0.939693 0   
     length 7.66799   
     axis 0 0 -20   XYZ
    dof rx
    limits (-10.0 170.0)
 end
 begin
     id 9 
     name rfoot
     direction -0.0727352 -0.199838 0.977125   
     length 2.57224  
     axis -90 -7.62852e-016 -20   XYZ
    dof rx rz
    limits (-45.0 90.0)
           (-20.0 70.0)
  end
  begin
     id 10 
     name rtoes
     direction -1.53501e-011 -4.21858e-011 1   
     length 1.28858   
     axis -90 -7.62852e-016 -20   XYZ
    dof rx
    limits (-90.0 20.0)
  end
  begin
     id 11 
     name lowerback
     direction -0.0172471 0.995767 -0.0902851   
     length 2.20206   
     axis 0 0 0   XYZ
    dof rx ry rz
    limits (-20.0 45.0)
           (-30.0 30.0)
           (-30.0 30.0)
  end
  begin
     id 12 
     name upperback
     direction -0.000110737 0.999714 0.0239043   
     length 2.19523   
     axis 0 0 0   XYZ
    dof rx ry rz
    limits (-20.0 45.0)
           (-30.0 30.0)
           (-30.0 30.0)
  end
  begin
     id 13 
     name thorax
     direction 0.00704869 0.997783 0.0661741   
     length 2.21977   
     axis 0 0 0   XYZ
    dof rx ry rz
    limits (-20.0 45.0)
           (-30.0 30.0)
           (-30.0 30.0)
  end
  begin
     id 14 
     name lowerneck
     direction -0.00407501 0.995527 0.0943846   
     length 1.83142   
     axis 0 0 0   XYZ
    dof rx ry rz
    limits (-20.0 45.0)
           (-30.0 30.0)
           (-30.0 30.0)
  end
  begin
     id 15 
     name upperneck
     direction 0.0640586 0.986486 -0.150807   
     length 1.84616   
     axis 0 0 0   XYZ
    dof rx ry rz
    limits (-20.0 45.0)
           (-30.0 30.0)
           (-30.0 30.0)
  end
  begin
     id 16
     name head
     direction 0.0188017 0.99791 -0.0618239  
     length 1.85932  
     axis 0 0 0   XYZ
    dof rx ry rz
    limits (-20.0 45.0)
           (-30.0 30.0)
           (-30.0 30.0)
  end
  begin
     id 17 
     name lclavicle
     direction 0.976074 0.206905 0.066852  
     length 3.81043  
     axis 0 0 0   XYZ
    dof ry rz
    limits (-20.0 10.0)
           (0.0 20.0)
  end
  begin
     id 18 
     name lhumerus
     direction 1 -4.48971e-011 1.86916e-027   
     length 5.37587   
     axis 180 -30 -90   XYZ
    dof rx ry rz
    limits (-60.0 90.0)
           (-90.0 90.0)
           (-90.0 90.0)
  end
  begin
     id 19
     name lradius
     direction 1 -4.48968e-011 1.69187e-027   
     length 3.35977   
     axis 180 -30 -90   XYZ
    dof rx
    limits (-10.0 170.0)
  end
  begin
     id 20
     name lwrist
     direction 1 -4.48968e-011 5.8978e-027   
     length 1.67988   
     axis -3.27506e-015 90 90   XYZ
    dof ry
    limits (-180.0 0.0)
 end
  begin
     id 21 
     name lhand
     direction 1 -4.49028e-011 1.18071e-026   
     length 0.561859   
     axis -7.52654e-015 90 90   XYZ
    dof rx rz
    limits (-90.0 90.0)
           (-45.0 45.0)
  end
  begin
     id 22 
     name lfingers
     direction 1 -4.48927e-011 2.35758e-026   
     length 0.452985   
     axis -1.50534e-014 90 90   XYZ
    dof rx
    limits (0.0 90.0)
  end
  begin
     id 23
     name lthumb
     direction 0.707107 -6.34898e-011 0.707107   
     length 0.650399   
     axis -90 45 5.69224e-014   XYZ
    dof rx rz
    limits (-45.0 45.0)
           (-45.0 45.0)
  end
  begin
     id 24 
     name rclavicle
     direction -0.988403 0.151789 0.00439714   
     length 3.6942  
     axis 0 0 0   XYZ 
    dof ry rz
    limits (-10.0 20.0)
           (-20.0 0.0)
  end
  begin
     id 25 
     name rhumerus
     direction -1 -4.48978e-011 1.62495e-027  
     length 5.22819   
     axis 180 30 90   XYZ
    dof rx ry rz
    limits (-90.0 60.0)
           (-90.0 90.0)
           (-90.0 90.0)
  end
  begin
     id 26 
     name rradius
     direction -1 -4.48961e-011 3.47796e-027   
     length 3.40764   
     axis 180 30 90   XYZ
    dof rx
    limits (-10.0 170.0)
  end
  begin
     id 27 
     name rwrist
     direction -1 -4.48949e-011 5.89602e-027   
     length 1.70382   
     axis -3.27506e-015 -90 -90   XYZ
    dof ry
    limits (-180.0 0.0)
  end
  begin
     id 28
     name rhand
     direction -1 -4.48977e-011 1.17973e-026   
     length 0.583255   
     axis -7.52654e-015 -90 -90   XYZ
    dof rx rz
    limits (-90.0 90.0)
           (-45.0 45.0)
  end
  begin
     id 29
     name rfingers
     direction -1 -4.49099e-011 2.36408e-026   
     length 0.470235   
     axis -1.50534e-014 -90 -90   XYZ
    dof rx
    limits (0.0 90.0)
  end
  begin
     id 30
     name rthumb
     direction -0.707107 -6.35011e-011 0.707107   
     length 0.675167   
     axis -90 -45 -5.69224e-014   XYZ
    dof rx rz
    limits (-45.0 45.0)
           (-45.0 45.0)
  end
:hierarchy
  begin
    root lhipjoint rhipjoint lowerback
    lhipjoint lfemur
    lfemur ltibia
    ltibia lfoot
    lfoot ltoes
    rhipjoint rfemur
    rfemur rtibia
    rtibia rfoot
    rfoot rtoes
    lowerback upperback
    upperback thorax
    thorax lowerneck lclavicle rclavicle
    lowerneck upperneck
    upperneck head
    lclavicle lhumerus
    lhumerus lradius
    lradius lwrist
    lwrist lhand lthumb
    lhand lfingers
    rclavicle rhumerus
    rhumerus rradius
    rradius rwrist
    rwrist rhand rthumb
    rhand rfingers
  end

#!OML:ASF G:\JayActor3\Patient Classification 1\Patient 1\Session 2\male.ASF
:FULLY-SPECIFIED
:DEGREES
228
root 49.6388 16.6825 -7.31282 88.6028 -88.1028 -87.8012
lowerback -3.07064 -2.08147 -1.70391
upperback 4.42222 -2.77728 0.705853
thorax 6.43684 -1.49591 1.44491
lowerneck -4.80186 -10.3314 -10.4125
upperneck -1.12677 -13.5767 13.4258
head 2.10311 -6.65828 5.08601
rclavicle -2.27111e-014 1.59028e-015
rhumerus -34.777 3.30806 -84.8962
rradius 40.8556
rwrist -11.2871
rhand -21.1663 4.15606
rfingers 7.12502
rthumb 5.21378 -25.7598
lclavicle -2.27111e-014 1.59028e-015
lhumerus -32.3701 2.39732 83.9403
lradius 34.3732
lwrist 15.4001
lhand -18.693 19.351
lfingers 7.12502
lthumb 7.60149 49.1944
rfemur -12.8365 1.34469 21.3529
rtibia 34.6439
rfoot -23.8703 -8.52979
rtoes 18.1692
lfemur -6.75944 1.88529 -17.7926
ltibia 24.4919
lfoot -15.9264 7.92829
ltoes -6.67376
229
root 49.6379 16.6832 -7.31438 87.7529 -88.1055 -86.9593
lowerback -3.0481 -2.06516 -1.70797
upperback 4.43542 -2.75594 0.70515
thorax 6.4371 -1.48588 1.44892
lowerneck -4.69355 -10.3321 -10.3958
upperneck -1.35767 -13.5714 13.4742
head 2.01973 -6.66396 5.11029
rclavicle -1.80397e-014 7.7526e-015
rhumerus -34.7 3.42705 -84.917
rradius 40.9372
rwrist -11.3034
rhand -21.2292 4.16836
rfingers 7.12502
rthumb 5.15301 -25.749
lclavicle -1.80397e-014 7.7526e-015
lhumerus -32.2635 2.29207 84.0106
lradius 34.6075
lwrist 15.4697
lhand -18.7284 19.3261
lfingers 7.12502
lthumb 7.56731 49.1707
rfemur -12.8103 1.31091 21.3548
rtibia 34.621
rfoot -23.871 -8.52767
rtoes 18.217
lfemur -6.74129 1.83213 -17.7995
ltibia 24.4722
lfoot -15.9377 8.02087
ltoes -6.77107
230
root 49.6369 16.6839 -7.31612 86.8423 -88.1122 -86.0538
lowerback -3.0307 -2.05211 -1.71866
upperback 4.44887 -2.7385 0.705072
thorax 6.44115 -1.47813 1.45671
lowerneck -4.58533 -10.3323 -10.383
upperneck -1.57633 -13.5658 13.5198
head 1.94005 -6.66936 5.13409
rclavicle 4.19187e-014 -4.57205e-015
rhumerus -34.6143 3.54865 -84.9343
rradius 40.9883
rwrist -11.3135
rhand -21.3036 4.17372
rfingers 7.12502
rthumb 5.08121 -25.7454
lclavicle 4.19187e-014 -4.57205e-015
lhumerus -32.1647 2.19525 84.0796
lradius 34.8466
lwrist 15.5339
lhand -18.7673 19.3214
lfingers 7.12502
lthumb 7.52975 49.1674
rfemur -12.79 1.28652 21.3541
rtibia 34.6032
rfoot -23.8742 -8.53868
rtoes 18.2547
lfemur -6.72667 1.77987 -17.8107
ltibia 24.4517
lfoot -15.9448 8.11289
ltoes -6.85951
231
root 49.6359 16.6847 -7.31804 85.8859 -88.1191 -85.0984
lowerback -3.01923 -2.04088 -1.73122
upperback 4.46155 -2.72329 0.705519
thorax 6.44802 -1.47156 1.46569
lowerneck -4.48907 -10.332 -10.368
upperneck -1.77384 -13.56 13.5555
head 1.86758 -6.67385 5.15351
rclavicle -8.82107e-015 -9.93923e-016
rhumerus -34.5212 3.66476 -84.9478
rradius 41.0076
rwrist -11.3131
rhand -21.3849 4.1788
rfingers 7.12502
rthumb 5.00269 -25.7421
lclavicle -8.82107e-015 -9.93923e-016
lhumerus -32.0691 2.10057 84.1464
lradius 35.0855
lwrist 15.6018
lhand -18.8048 19.3217
lfingers 7.12502
lthumb 7.4936 49.1689
rfemur -12.7754 1.27475 21.3548
rtibia 34.5889
rfoot -23.8826 -8.56449
rtoes 18.2849
lfemur -6.71768 1.7293 -17.8224
ltibia 24.4326
lfoot -15.9459 8.20415
ltoes -6.95107
232
root 49.6346 16.6855 -7.32011 84.8499 -88.127 -84.0581
lowerback -3.01746 -2.03134 -1.74525
upperback 4.47314 -2.70999 0.705528
thorax 6.45944 -1.46596 1.47452
lowerneck -4.40282 -10.3306 -10.3529
upperneck -1.94581 -13.5534 13.5847
head 1.80366 -6.67717 5.16985
rclavicle -2.83765e-014 0
rhumerus -34.4228 3.77108 -84.9574
rradius 40.9956
rwrist -11.3008
rhand -21.4663 4.18129
rfingers 7.12502
rthumb 4.92409 -25.7415
lclavicle -2.83765e-014 0
lhumerus -31.9811 2.00371 84.2119
lradius 35.33
lwrist 15.6785
lhand -18.837 19.3434
lfingers 7.12502
lthumb 7.46253 49.1918
rfemur -12.7665 1.26949 21.355
rtibia 34.5773
rfoot -23.8969 -8.59685
rtoes 18.314
lfemur -6.71538 1.67954 -17.8355
ltibia 24.4157
lfoot -15.9441 8.28924
ltoes -7.02358
233
root 49.6332 16.6864 -7.32231 83.7703 -88.1315 -82.9695
lowerback -3.02371 -2.02177 -1.75507
upperback 4.4843 -2.69667 0.704903
thorax 6.47479 -1.46013 1.48007
lowerneck -4.3337 -10.3291 -10.3346
upperneck -2.0871 -13.5477 13.6067
head 1.75086 -6.67976 5.1818
rclavicle 1.717e-014 4.57205e-015
rhumerus -34.3206 3.86047 -84.9629
rradius 40.9555
rwrist -11.2771
rhand -21.5388 4.18197
rfingers 7.12502
rthumb 4.85409 -25.7424
lclavicle 1.717e-014 4.57205e-015
lhumerus -31.8964 1.90618 84.274
lradius 35.5733
lwrist 15.7589
lhand -18.8571 19.3681
lfingers 7.12502
lthumb 7.44306 49.2172
rfemur -12.7624 1.26616 21.359
rtibia 34.5669
rfoot -23.912 -8.63481
rtoes 18.3271
lfemur -6.71999 1.63323 -17.8454
ltibia 24.4026
lfoot -15.9379 8.36873
ltoes -7.09625
234
root 49.6317 16.6872 -7.32458 82.6693 -88.1343 -81.858
lowerback -3.03495 -2.01125 -1.76072
upperback 4.49468 -2.68209 0.702085
thorax 6.4918 -1.45337 1.48096
lowerneck -4.27852 -10.3284 -10.3074
upperneck -2.19934 -13.5443 13.6186
head 1.70773 -6.68259 5.1877
rclavicle 1.12065e-014 -1.94809e-014
rhumerus -34.2194 3.93079 -84.9653
rradius 40.8908
rwrist -11.2445
rhand -21.6008 4.18357
rfingers 7.12502
rthumb 4.79425 -25.7422
lclavicle 1.12065e-014 -1.94809e-014
lhumerus -31.8168 1.80918 84.3314
lradius 35.8107
lwrist 15.8385
lhand -18.8658 19.3881
lfingers 7.12502
lthumb 7.43467 49.2375
rfemur -12.7593 1.25819 21.3638
rtibia 34.5569
rfoot -23.9266 -8.66935
rtoes 18.3396
lfemur -6.72772 1.58885 -17.8537
ltibia 24.3938
lfoot -15.9332 8.44113
ltoes -7.15537
235
root 49.6301 16.6879 -7.32692 81.5577 -88.1341 -80.7365
lowerback -3.04868 -2.00037 -1.7621
upperback 4.50639 -2.66723 0.698688
thorax 6.51141 -1.4463 1.47876
lowerneck -4.23839 -10.3296 -10.2788
upperneck -2.28542 -13.5442 13.6272
head 1.67474 -6.68599 5.19062
rclavicle -3.8266e-015 -9.14409e-015
rhumerus -34.1146 3.98214 -84.9628
rradius 40.8024
rwrist -11.206
rhand -21.649 4.18352
rfingers 7.12502
rthumb 4.7477 -25.7433
lclavicle -3.8266e-015 -9.14409e-015
lhumerus -31.7387 1.71625 84.3855
lradius 36.0402
lwrist 15.9139
lhand -18.87 19.3997
lfingers 7.12502
lthumb 7.43061 49.2492
rfemur -12.7551 1.24379 21.3703
rtibia 34.5463
rfoot -23.9399 -8.69583
rtoes 18.3575
lfemur -6.73691 1.54594 -17.8591
ltibia 24.3902
lfoot -15.9311 8.50662
ltoes -7.20984
236
root 49.6284 16.6884 -7.32933 80.4486 -88.1293 -79.6189
lowerback -3.06207 -1.98849 -1.75816
upperback 4.51878 -2.65136 0.695025
thorax 6.53123 -1.43847 1.47342
lowerneck -4.21068 -10.3346 -10.2504
upperneck -2.34453 -13.5504 13.6356
head 1.6524 -6.69153 5.19159
rclavicle -1.97791e-014 -1.63003e-014
rhumerus -34.0087 4.01171 -84.9552
rradius 40.692
rwrist -11.1645
rhand -21.6834 4.18672
rfingers 7.12502
rthumb 4.71451 -25.7408
lclavicle -1.97791e-014 -1.63003e-014
lhumerus -31.6632 1.62544 84.4358
lradius 36.2572
lwrist 15.9842
lhand -18.8767 19.3959
lfingers 7.12502
lthumb 7.4242 49.2457
rfemur -12.7487 1.219 21.3801
rtibia 34.5347
rfoot -23.95 -8.71371
rtoes 18.3736
lfemur -6.74571 1.50448 -17.8592
ltibia 24.391
lfoot -15.9348 8.56263
ltoes -7.23664
237
root 49.6266 16.6888 -7.33179 79.3306 -88.1204 -78.4955
lowerback -3.07299 -1.9756 -1.74979
upperback 4.53151 -2.63451 0.691634
thorax 6.54974 -1.42996 1.46606
lowerneck -4.17714 -10.3476 -10.2365
upperneck -2.37869 -13.5695 13.6586
head 1.6401 -6.70301 5.19762
rclavicle 1.44119e-014 1.98785e-016
rhumerus -33.9036 4.01838 -84.9413
rradius 40.5624
rwrist -11.1205
rhand -21.7093 4.18908
rfingers 7.12502
rthumb 4.68948 -25.739
lclavicle 1.44119e-014 1.98785e-016
lhumerus -31.5888 1.53877 84.4823
lradius 36.4539
lwrist 16.0481
lhand -18.8851 19.3539
lfingers 7.12502
lthumb 7.41608 49.2039
rfemur -12.7379 1.18545 21.3925
rtibia 34.5215
rfoot -23.9565 -8.72358
rtoes 18.3859
lfemur -6.75293 1.46528 -17.8545
ltibia 24.396
lfoot -15.9417 8.60895
ltoes -7.26174
238
root 49.6248 16.6891 -7.33438 78.2025 -88.1077 -77.3646
lowerback -3.08252 -1.9617 -1.73916
upperback 4.54447 -2.61655 0.6894
thorax 6.56759 -1.42082 1.4588
lowerneck -4.13759 -10.3692 -10.2371
upperneck -2.38802 -13.6024 13.6952
head 1.63779 -6.72086 5.20834
rclavicle 3.00413e-014 7.95139e-016
rhumerus -33.7994 4.00226 -84.9192
rradius 40.4137
rwrist -11.0756
rhand -21.7273 4.20171
rfingers 7.12502
rthumb 4.67208 -25.7268
lclavicle 3.00413e-014 7.95139e-016
lhumerus -31.5142 1.45023 84.5289
lradius 36.6319
lwrist 16.1129
lhand -18.9088 19.3346
lfingers 7.12502
lthumb 7.3932 49.1855
rfemur -12.7238 1.14363 21.4075
rtibia 34.5073
rfoot -23.9601 -8.72514
rtoes 18.3956
lfemur -6.75816 1.43149 -17.8446
ltibia 24.4032
lfoot -15.9496 8.64289
ltoes -7.26842
239
root 49.6231 16.6894 -7.33707 77.0731 -88.0917 -76.235
lowerback -3.09028 -1.94646 -1.72634
upperback 4.55892 -2.59704 0.68773
thorax 6.58587 -1.41087 1.45109
lowerneck -4.10377 -10.3972 -10.2579
upperneck -2.37515 -13.6451 13.7526
head 1.64712 -6.7427 5.22646
rclavicle -1.73937e-014 4.17448e-015
rhumerus -33.6949 3.96337 -84.8901
rradius 40.2495
rwrist -11.0287
rhand -21.7421 4.22129
rfingers 7.12502
rthumb 4.65781 -25.7075
lclavicle -1.73937e-014 4.17448e-015
lhumerus -31.4334 1.35994 84.5749
lradius 36.7868
lwrist 16.177
lhand -18.9362 19.3222
lfingers 7.12502
lthumb 7.36675 49.174
rfemur -12.7057 1.09757 21.4246
rtibia 34.4924
rfoot -23.9633 -8.72218
rtoes 18.4031
lfemur -6.76142 1.40237 -17.8307
ltibia 24.4112
lfoot -15.9542 8.66937
ltoes -7.28806
240
root 49.6214 16.6895 -7.33989 75.9064 -88.0767 -75.071
lowerback -3.09542 -1.93023 -1.71642
upperback 4.57312 -2.57608 0.6862
thorax 6.60248 -1.40035 1.44537
lowerneck -4.074 -10.4301 -10.286
upperneck -2.34594 -13.6952 13.8152
head 1.66372 -6.76767 5.24592
rclavicle 2.05245e-014 -7.55382e-015
rhumerus -33.5967 3.90456 -84.8536
rradius 40.0752
rwrist -10.9789
rhand -21.7569 4.24677
rfingers 7.12502
rthumb 4.64347 -25.6823
lclavicle 2.05245e-014 -7.55382e-015
lhumerus -31.3512 1.26676 84.6229
lradius 36.9197
lwrist 16.2415
lhand -18.9714 19.3238
lfingers 7.12502
lthumb 7.33271 49.1767
rfemur -12.684 1.04993 21.4392
rtibia 34.4779
rfoot -23.9684 -8.7161
rtoes 18.4099
lfemur -6.76152 1.37765 -17.8173
ltibia 24.4182
lfoot -15.9551 8.68554
ltoes -7.30487
241
root 49.6198 16.6896 -7.34288 74.7071 -88.061 -73.8757
lowerback -3.09773 -1.91345 -1.70953
upperback 4.58736 -2.55435 0.686251
thorax 6.6177 -1.38964 1.44317
lowerneck -4.05486 -10.4655 -10.3187
upperneck -2.30356 -13.7488 13.8788
head 1.68677 -6.79371 5.2651
rclavicle 1.13804e-014 7.55382e-015
rhumerus -33.5042 3.83275 -84.8105
rradius 39.8942
rwrist -10.9293
rhand -21.7725 4.27089
rfingers 7.12502
rthumb 4.62843 -25.6585
lclavicle 1.13804e-014 7.55382e-015
lhumerus -31.2638 1.17934 84.6718
lradius 37.0277
lwrist 16.2987
lhand -19.0007 19.3165
lfingers 7.12502
lthumb 7.30446 49.1704
rfemur -12.6608 1.00691 21.4539
rtibia 34.4646
rfoot -23.9785 -8.70936
rtoes 18.4295
lfemur -6.76053 1.35808 -17.8024
ltibia 24.4231
lfoot -15.9504 8.69107
ltoes -7.32149
242
root 49.6183 16.6896 -7.34597 73.4923 -88.046 -72.6663
lowerback -3.09702 -1.89602 -1.70645
upperback 4.5999 -2.5316 0.687463
thorax 6.62957 -1.3786 1.44456
lowerneck -4.03335 -10.4992 -10.3525
upperneck -2.26149 -13.8003 13.9414
head 1.70911 -6.81872 5.28442
rclavicle -2.50966e-015 7.55382e-015
rhumerus -33.4225 3.75025 -84.7622
rradius 39.7088
rwrist -10.8794
rhand -21.7918 4.28717
rfingers 7.12502
rthumb 4.6098 -25.6427
lclavicle -2.50966e-015 7.55382e-015
lhumerus -31.1784 1.10056 84.7215
lradius 37.1127
lwrist 16.3426
lhand -19.017 19.2923
lfingers 7.12502
lthumb 7.28872 49.1468
rfemur -12.6363 0.965724 21.4671
rtibia 34.4525
rfoot -23.9915 -8.70279
rtoes 18.4533
lfemur -6.75698 1.33912 -17.7881
ltibia 24.426
lfoot -15.9447 8.68875
ltoes -7.32499
